<mxfile host="app.diagrams.net" modified="2024-04-07T09:44:16.364Z" agent="Mozilla/5.0 (Windows NT 10.0; Win64; x64) AppleWebKit/537.36 (KHTML, like Gecko) Chrome/123.0.0.0 Safari/537.36" etag="iKyBmebcxIlIVJmDOG80" version="24.2.2" type="device">
  <diagram name="Page-1" id="3Wc7g7ct2-SkHMsYKMv7">
    <mxGraphModel dx="1434" dy="746" grid="1" gridSize="10" guides="1" tooltips="1" connect="1" arrows="1" fold="1" page="1" pageScale="1" pageWidth="827" pageHeight="1169" math="0" shadow="0">
      <root>
        <mxCell id="0" />
        <mxCell id="1" parent="0" />
        <mxCell id="BQ4Z-b_mNlI9nWMjUYyL-4" style="edgeStyle=orthogonalEdgeStyle;rounded=0;orthogonalLoop=1;jettySize=auto;html=1;exitX=0.5;exitY=1;exitDx=0;exitDy=0;entryX=0.5;entryY=0;entryDx=0;entryDy=0;" edge="1" parent="1" target="BQ4Z-b_mNlI9nWMjUYyL-2">
          <mxGeometry relative="1" as="geometry">
            <mxPoint x="490" y="60" as="sourcePoint" />
          </mxGeometry>
        </mxCell>
        <mxCell id="BQ4Z-b_mNlI9nWMjUYyL-2" value="NUM1 ,NUM2 , NUM3 , NUM4 , NUM5 ,&lt;div&gt;NUMcem&lt;/div&gt;" style="shape=parallelogram;perimeter=parallelogramPerimeter;whiteSpace=wrap;html=1;fixedSize=1;" vertex="1" parent="1">
          <mxGeometry x="370" y="110" width="240" height="60" as="geometry" />
        </mxCell>
        <mxCell id="BQ4Z-b_mNlI9nWMjUYyL-28" style="edgeStyle=orthogonalEdgeStyle;rounded=0;orthogonalLoop=1;jettySize=auto;html=1;exitX=0;exitY=0.5;exitDx=0;exitDy=0;entryX=1;entryY=0.5;entryDx=0;entryDy=0;" edge="1" parent="1" source="BQ4Z-b_mNlI9nWMjUYyL-5" target="BQ4Z-b_mNlI9nWMjUYyL-9">
          <mxGeometry relative="1" as="geometry" />
        </mxCell>
        <mxCell id="BQ4Z-b_mNlI9nWMjUYyL-29" value="FALSE" style="edgeLabel;html=1;align=center;verticalAlign=middle;resizable=0;points=[];" vertex="1" connectable="0" parent="BQ4Z-b_mNlI9nWMjUYyL-28">
          <mxGeometry x="0.0303" relative="1" as="geometry">
            <mxPoint as="offset" />
          </mxGeometry>
        </mxCell>
        <mxCell id="BQ4Z-b_mNlI9nWMjUYyL-5" value="&lt;div&gt;NUM1&amp;gt;0 &amp;amp;&amp;amp; NUM2&amp;gt;0 &amp;amp;&amp;amp; NUM3&amp;gt;0 &amp;amp;&amp;amp;NUM4&amp;gt;0 &amp;amp;&amp;amp; NUM5&amp;gt;0&lt;/div&gt;&lt;div&gt;&lt;br&gt;&lt;/div&gt;" style="rhombus;whiteSpace=wrap;html=1;" vertex="1" parent="1">
          <mxGeometry x="230" y="210" width="520" height="110" as="geometry" />
        </mxCell>
        <mxCell id="BQ4Z-b_mNlI9nWMjUYyL-6" style="edgeStyle=orthogonalEdgeStyle;rounded=0;orthogonalLoop=1;jettySize=auto;html=1;exitX=0.5;exitY=1;exitDx=0;exitDy=0;entryX=0.5;entryY=-0.075;entryDx=0;entryDy=0;entryPerimeter=0;" edge="1" parent="1" source="BQ4Z-b_mNlI9nWMjUYyL-2" target="BQ4Z-b_mNlI9nWMjUYyL-5">
          <mxGeometry relative="1" as="geometry" />
        </mxCell>
        <mxCell id="BQ4Z-b_mNlI9nWMjUYyL-27" style="edgeStyle=orthogonalEdgeStyle;rounded=0;orthogonalLoop=1;jettySize=auto;html=1;exitX=0.5;exitY=0;exitDx=0;exitDy=0;entryX=0.5;entryY=1;entryDx=0;entryDy=0;" edge="1" parent="1" source="BQ4Z-b_mNlI9nWMjUYyL-7" target="BQ4Z-b_mNlI9nWMjUYyL-9">
          <mxGeometry relative="1" as="geometry" />
        </mxCell>
        <mxCell id="BQ4Z-b_mNlI9nWMjUYyL-7" value="NUMcem" style="shape=document;whiteSpace=wrap;html=1;boundedLbl=1;" vertex="1" parent="1">
          <mxGeometry x="30" y="365" width="120" height="70" as="geometry" />
        </mxCell>
        <mxCell id="BQ4Z-b_mNlI9nWMjUYyL-9" value="END" style="rounded=1;whiteSpace=wrap;html=1;" vertex="1" parent="1">
          <mxGeometry x="30" y="235" width="120" height="60" as="geometry" />
        </mxCell>
        <mxCell id="BQ4Z-b_mNlI9nWMjUYyL-12" value="" style="edgeStyle=none;orthogonalLoop=1;jettySize=auto;html=1;endArrow=classic;startArrow=classic;endSize=8;startSize=8;rounded=0;fillColor=#f8cecc;strokeColor=#b85450;" edge="1" parent="1">
          <mxGeometry width="100" relative="1" as="geometry">
            <mxPoint x="30" y="440" as="sourcePoint" />
            <mxPoint x="810" y="440" as="targetPoint" />
            <Array as="points" />
          </mxGeometry>
        </mxCell>
        <mxCell id="BQ4Z-b_mNlI9nWMjUYyL-16" style="edgeStyle=orthogonalEdgeStyle;rounded=0;orthogonalLoop=1;jettySize=auto;html=1;entryX=0.5;entryY=0;entryDx=0;entryDy=0;" edge="1" parent="1" source="BQ4Z-b_mNlI9nWMjUYyL-13" target="BQ4Z-b_mNlI9nWMjUYyL-14">
          <mxGeometry relative="1" as="geometry" />
        </mxCell>
        <mxCell id="BQ4Z-b_mNlI9nWMjUYyL-13" value="START" style="rounded=1;whiteSpace=wrap;html=1;" vertex="1" parent="1">
          <mxGeometry x="340" y="450" width="120" height="50" as="geometry" />
        </mxCell>
        <mxCell id="BQ4Z-b_mNlI9nWMjUYyL-24" style="edgeStyle=orthogonalEdgeStyle;rounded=0;orthogonalLoop=1;jettySize=auto;html=1;exitX=0.5;exitY=1;exitDx=0;exitDy=0;entryX=0.5;entryY=0;entryDx=0;entryDy=0;" edge="1" parent="1" source="BQ4Z-b_mNlI9nWMjUYyL-14" target="BQ4Z-b_mNlI9nWMjUYyL-17">
          <mxGeometry relative="1" as="geometry" />
        </mxCell>
        <mxCell id="BQ4Z-b_mNlI9nWMjUYyL-72" value="kvadrat" style="edgeLabel;html=1;align=center;verticalAlign=middle;resizable=0;points=[];" vertex="1" connectable="0" parent="BQ4Z-b_mNlI9nWMjUYyL-24">
          <mxGeometry x="-0.02" y="1" relative="1" as="geometry">
            <mxPoint as="offset" />
          </mxGeometry>
        </mxCell>
        <mxCell id="BQ4Z-b_mNlI9nWMjUYyL-69" style="edgeStyle=orthogonalEdgeStyle;rounded=0;orthogonalLoop=1;jettySize=auto;html=1;exitX=1;exitY=0.5;exitDx=0;exitDy=0;" edge="1" parent="1" source="BQ4Z-b_mNlI9nWMjUYyL-14" target="BQ4Z-b_mNlI9nWMjUYyL-70">
          <mxGeometry relative="1" as="geometry">
            <mxPoint x="550" y="570" as="targetPoint" />
          </mxGeometry>
        </mxCell>
        <mxCell id="BQ4Z-b_mNlI9nWMjUYyL-71" value="kub" style="edgeLabel;html=1;align=center;verticalAlign=middle;resizable=0;points=[];" vertex="1" connectable="0" parent="BQ4Z-b_mNlI9nWMjUYyL-69">
          <mxGeometry x="-0.0909" relative="1" as="geometry">
            <mxPoint as="offset" />
          </mxGeometry>
        </mxCell>
        <mxCell id="BQ4Z-b_mNlI9nWMjUYyL-14" value="NUM" style="shape=parallelogram;perimeter=parallelogramPerimeter;whiteSpace=wrap;html=1;fixedSize=1;" vertex="1" parent="1">
          <mxGeometry x="340" y="540" width="120" height="60" as="geometry" />
        </mxCell>
        <mxCell id="BQ4Z-b_mNlI9nWMjUYyL-32" style="edgeStyle=orthogonalEdgeStyle;rounded=0;orthogonalLoop=1;jettySize=auto;html=1;exitX=0;exitY=0.5;exitDx=0;exitDy=0;entryX=1;entryY=0.5;entryDx=0;entryDy=0;" edge="1" parent="1" source="BQ4Z-b_mNlI9nWMjUYyL-17" target="BQ4Z-b_mNlI9nWMjUYyL-31">
          <mxGeometry relative="1" as="geometry" />
        </mxCell>
        <mxCell id="BQ4Z-b_mNlI9nWMjUYyL-17" value="NUM*NUM" style="rhombus;whiteSpace=wrap;html=1;" vertex="1" parent="1">
          <mxGeometry x="310" y="650" width="180" height="100" as="geometry" />
        </mxCell>
        <mxCell id="BQ4Z-b_mNlI9nWMjUYyL-18" style="edgeStyle=orthogonalEdgeStyle;rounded=0;orthogonalLoop=1;jettySize=auto;html=1;exitX=0.5;exitY=1;exitDx=0;exitDy=0;" edge="1" parent="1" source="BQ4Z-b_mNlI9nWMjUYyL-5" target="BQ4Z-b_mNlI9nWMjUYyL-5">
          <mxGeometry relative="1" as="geometry" />
        </mxCell>
        <mxCell id="BQ4Z-b_mNlI9nWMjUYyL-26" style="edgeStyle=orthogonalEdgeStyle;rounded=0;orthogonalLoop=1;jettySize=auto;html=1;exitX=0;exitY=0.5;exitDx=0;exitDy=0;entryX=1;entryY=0.5;entryDx=0;entryDy=0;" edge="1" parent="1" source="BQ4Z-b_mNlI9nWMjUYyL-19" target="BQ4Z-b_mNlI9nWMjUYyL-7">
          <mxGeometry relative="1" as="geometry" />
        </mxCell>
        <mxCell id="BQ4Z-b_mNlI9nWMjUYyL-19" value="&#xa;NUMcem=NUM1+NUM2+NUM3+NUM4+NUM5&lt;div style=&quot;forced-color-adjust: none;&quot;&gt;&lt;br style=&quot;forced-color-adjust: none; color: rgb(0, 0, 0); font-family: Helvetica; font-size: 12px; font-style: normal; font-variant-ligatures: normal; font-variant-caps: normal; font-weight: 400; letter-spacing: normal; orphans: 2; text-align: center; text-indent: 0px; text-transform: none; widows: 2; word-spacing: 0px; -webkit-text-stroke-width: 0px; white-space: normal; background-color: rgb(251, 251, 251); text-decoration-thickness: initial; text-decoration-style: initial; text-decoration-color: initial;&quot;&gt;&#xa;&#xa;&lt;/div&gt;" style="rounded=0;whiteSpace=wrap;html=1;" vertex="1" parent="1">
          <mxGeometry x="320" y="370" width="330" height="60" as="geometry" />
        </mxCell>
        <mxCell id="BQ4Z-b_mNlI9nWMjUYyL-20" style="edgeStyle=orthogonalEdgeStyle;rounded=0;orthogonalLoop=1;jettySize=auto;html=1;entryX=0.521;entryY=-0.05;entryDx=0;entryDy=0;entryPerimeter=0;" edge="1" parent="1" source="BQ4Z-b_mNlI9nWMjUYyL-5" target="BQ4Z-b_mNlI9nWMjUYyL-19">
          <mxGeometry relative="1" as="geometry" />
        </mxCell>
        <mxCell id="BQ4Z-b_mNlI9nWMjUYyL-25" value="TRUE" style="edgeLabel;html=1;align=center;verticalAlign=middle;resizable=0;points=[];" vertex="1" connectable="0" parent="BQ4Z-b_mNlI9nWMjUYyL-20">
          <mxGeometry x="-0.02" y="-2" relative="1" as="geometry">
            <mxPoint as="offset" />
          </mxGeometry>
        </mxCell>
        <mxCell id="BQ4Z-b_mNlI9nWMjUYyL-34" style="edgeStyle=orthogonalEdgeStyle;rounded=0;orthogonalLoop=1;jettySize=auto;html=1;exitX=0.5;exitY=0;exitDx=0;exitDy=0;" edge="1" parent="1" source="BQ4Z-b_mNlI9nWMjUYyL-31" target="BQ4Z-b_mNlI9nWMjUYyL-33">
          <mxGeometry relative="1" as="geometry" />
        </mxCell>
        <mxCell id="BQ4Z-b_mNlI9nWMjUYyL-31" value="CAVAB" style="shape=document;whiteSpace=wrap;html=1;boundedLbl=1;" vertex="1" parent="1">
          <mxGeometry x="130" y="660" width="120" height="80" as="geometry" />
        </mxCell>
        <mxCell id="BQ4Z-b_mNlI9nWMjUYyL-33" value="END" style="rounded=1;whiteSpace=wrap;html=1;" vertex="1" parent="1">
          <mxGeometry x="130" y="480" width="120" height="60" as="geometry" />
        </mxCell>
        <mxCell id="BQ4Z-b_mNlI9nWMjUYyL-35" value="" style="edgeStyle=none;orthogonalLoop=1;jettySize=auto;html=1;endArrow=classic;startArrow=classic;endSize=8;startSize=8;rounded=0;fillColor=#f8cecc;strokeColor=#b85450;" edge="1" parent="1">
          <mxGeometry width="100" relative="1" as="geometry">
            <mxPoint x="10" y="810" as="sourcePoint" />
            <mxPoint x="800" y="810" as="targetPoint" />
            <Array as="points" />
          </mxGeometry>
        </mxCell>
        <mxCell id="BQ4Z-b_mNlI9nWMjUYyL-38" style="edgeStyle=orthogonalEdgeStyle;rounded=0;orthogonalLoop=1;jettySize=auto;html=1;entryX=0.5;entryY=0;entryDx=0;entryDy=0;" edge="1" parent="1" source="BQ4Z-b_mNlI9nWMjUYyL-36" target="BQ4Z-b_mNlI9nWMjUYyL-37">
          <mxGeometry relative="1" as="geometry" />
        </mxCell>
        <mxCell id="BQ4Z-b_mNlI9nWMjUYyL-36" value="START&lt;div&gt;&lt;br&gt;&lt;/div&gt;" style="rounded=1;whiteSpace=wrap;html=1;" vertex="1" parent="1">
          <mxGeometry x="570" y="810" width="120" height="60" as="geometry" />
        </mxCell>
        <mxCell id="BQ4Z-b_mNlI9nWMjUYyL-40" style="edgeStyle=orthogonalEdgeStyle;rounded=0;orthogonalLoop=1;jettySize=auto;html=1;exitX=0.5;exitY=1;exitDx=0;exitDy=0;entryX=0.5;entryY=0;entryDx=0;entryDy=0;" edge="1" parent="1" source="BQ4Z-b_mNlI9nWMjUYyL-37" target="BQ4Z-b_mNlI9nWMjUYyL-39">
          <mxGeometry relative="1" as="geometry" />
        </mxCell>
        <mxCell id="BQ4Z-b_mNlI9nWMjUYyL-37" value="N1,N2,N3" style="shape=parallelogram;perimeter=parallelogramPerimeter;whiteSpace=wrap;html=1;fixedSize=1;" vertex="1" parent="1">
          <mxGeometry x="570" y="890" width="120" height="60" as="geometry" />
        </mxCell>
        <mxCell id="BQ4Z-b_mNlI9nWMjUYyL-43" style="edgeStyle=orthogonalEdgeStyle;rounded=0;orthogonalLoop=1;jettySize=auto;html=1;exitX=0.5;exitY=1;exitDx=0;exitDy=0;entryX=0.5;entryY=0;entryDx=0;entryDy=0;" edge="1" parent="1" source="BQ4Z-b_mNlI9nWMjUYyL-39" target="BQ4Z-b_mNlI9nWMjUYyL-41">
          <mxGeometry relative="1" as="geometry" />
        </mxCell>
        <mxCell id="BQ4Z-b_mNlI9nWMjUYyL-46" style="edgeStyle=orthogonalEdgeStyle;rounded=0;orthogonalLoop=1;jettySize=auto;html=1;entryX=0.5;entryY=0;entryDx=0;entryDy=0;" edge="1" parent="1" source="BQ4Z-b_mNlI9nWMjUYyL-39" target="BQ4Z-b_mNlI9nWMjUYyL-45">
          <mxGeometry relative="1" as="geometry" />
        </mxCell>
        <mxCell id="BQ4Z-b_mNlI9nWMjUYyL-47" value="true" style="edgeLabel;html=1;align=center;verticalAlign=middle;resizable=0;points=[];" vertex="1" connectable="0" parent="BQ4Z-b_mNlI9nWMjUYyL-46">
          <mxGeometry x="-0.0759" relative="1" as="geometry">
            <mxPoint as="offset" />
          </mxGeometry>
        </mxCell>
        <mxCell id="BQ4Z-b_mNlI9nWMjUYyL-39" value="n1&amp;gt;n2 &amp;amp;&amp;amp; n1&amp;gt;n3" style="rhombus;whiteSpace=wrap;html=1;" vertex="1" parent="1">
          <mxGeometry x="580" y="980" width="120" height="60" as="geometry" />
        </mxCell>
        <mxCell id="BQ4Z-b_mNlI9nWMjUYyL-44" style="edgeStyle=orthogonalEdgeStyle;rounded=0;orthogonalLoop=1;jettySize=auto;html=1;exitX=0.5;exitY=1;exitDx=0;exitDy=0;entryX=0.5;entryY=0;entryDx=0;entryDy=0;" edge="1" parent="1" source="BQ4Z-b_mNlI9nWMjUYyL-41" target="BQ4Z-b_mNlI9nWMjUYyL-42">
          <mxGeometry relative="1" as="geometry" />
        </mxCell>
        <mxCell id="BQ4Z-b_mNlI9nWMjUYyL-48" style="edgeStyle=orthogonalEdgeStyle;rounded=0;orthogonalLoop=1;jettySize=auto;html=1;exitX=0;exitY=0.5;exitDx=0;exitDy=0;entryX=1;entryY=0.5;entryDx=0;entryDy=0;" edge="1" parent="1" source="BQ4Z-b_mNlI9nWMjUYyL-41" target="BQ4Z-b_mNlI9nWMjUYyL-45">
          <mxGeometry relative="1" as="geometry" />
        </mxCell>
        <mxCell id="BQ4Z-b_mNlI9nWMjUYyL-49" value="true" style="edgeLabel;html=1;align=center;verticalAlign=middle;resizable=0;points=[];" vertex="1" connectable="0" parent="BQ4Z-b_mNlI9nWMjUYyL-48">
          <mxGeometry x="-0.0174" y="2" relative="1" as="geometry">
            <mxPoint as="offset" />
          </mxGeometry>
        </mxCell>
        <mxCell id="BQ4Z-b_mNlI9nWMjUYyL-41" value="n2&amp;gt;n1&amp;amp;&amp;amp;n2&amp;gt;n3" style="rhombus;whiteSpace=wrap;html=1;" vertex="1" parent="1">
          <mxGeometry x="580" y="1060" width="120" height="60" as="geometry" />
        </mxCell>
        <mxCell id="BQ4Z-b_mNlI9nWMjUYyL-50" style="edgeStyle=orthogonalEdgeStyle;rounded=0;orthogonalLoop=1;jettySize=auto;html=1;exitX=0;exitY=0.5;exitDx=0;exitDy=0;" edge="1" parent="1" source="BQ4Z-b_mNlI9nWMjUYyL-42" target="BQ4Z-b_mNlI9nWMjUYyL-45">
          <mxGeometry relative="1" as="geometry" />
        </mxCell>
        <mxCell id="BQ4Z-b_mNlI9nWMjUYyL-51" value="true" style="edgeLabel;html=1;align=center;verticalAlign=middle;resizable=0;points=[];" vertex="1" connectable="0" parent="BQ4Z-b_mNlI9nWMjUYyL-50">
          <mxGeometry x="-0.2" relative="1" as="geometry">
            <mxPoint as="offset" />
          </mxGeometry>
        </mxCell>
        <mxCell id="BQ4Z-b_mNlI9nWMjUYyL-42" value="n3&amp;gt;n1 &amp;amp;&amp;amp;n3&amp;gt;n2" style="rhombus;whiteSpace=wrap;html=1;" vertex="1" parent="1">
          <mxGeometry x="575" y="1150" width="130" height="70" as="geometry" />
        </mxCell>
        <mxCell id="BQ4Z-b_mNlI9nWMjUYyL-53" style="edgeStyle=orthogonalEdgeStyle;rounded=0;orthogonalLoop=1;jettySize=auto;html=1;exitX=0;exitY=0.5;exitDx=0;exitDy=0;" edge="1" parent="1" source="BQ4Z-b_mNlI9nWMjUYyL-45" target="BQ4Z-b_mNlI9nWMjUYyL-52">
          <mxGeometry relative="1" as="geometry" />
        </mxCell>
        <mxCell id="BQ4Z-b_mNlI9nWMjUYyL-45" value="true deyer" style="shape=document;whiteSpace=wrap;html=1;boundedLbl=1;" vertex="1" parent="1">
          <mxGeometry x="250" y="1040" width="120" height="100" as="geometry" />
        </mxCell>
        <mxCell id="BQ4Z-b_mNlI9nWMjUYyL-52" value="end" style="rounded=1;whiteSpace=wrap;html=1;" vertex="1" parent="1">
          <mxGeometry x="20" y="1060" width="120" height="60" as="geometry" />
        </mxCell>
        <mxCell id="BQ4Z-b_mNlI9nWMjUYyL-54" value="" style="edgeStyle=none;orthogonalLoop=1;jettySize=auto;html=1;endArrow=classic;startArrow=classic;endSize=8;startSize=8;rounded=0;fillColor=#f8cecc;strokeColor=#b85450;" edge="1" parent="1">
          <mxGeometry width="100" relative="1" as="geometry">
            <mxPoint x="10" y="1300" as="sourcePoint" />
            <mxPoint x="800" y="1300" as="targetPoint" />
            <Array as="points" />
          </mxGeometry>
        </mxCell>
        <mxCell id="BQ4Z-b_mNlI9nWMjUYyL-55" value="start" style="rounded=1;whiteSpace=wrap;html=1;" vertex="1" parent="1">
          <mxGeometry x="190" y="1320" width="120" height="60" as="geometry" />
        </mxCell>
        <mxCell id="BQ4Z-b_mNlI9nWMjUYyL-59" style="edgeStyle=orthogonalEdgeStyle;rounded=0;orthogonalLoop=1;jettySize=auto;html=1;exitX=0.5;exitY=1;exitDx=0;exitDy=0;entryX=0.5;entryY=0;entryDx=0;entryDy=0;" edge="1" parent="1" source="BQ4Z-b_mNlI9nWMjUYyL-56" target="BQ4Z-b_mNlI9nWMjUYyL-58">
          <mxGeometry relative="1" as="geometry" />
        </mxCell>
        <mxCell id="BQ4Z-b_mNlI9nWMjUYyL-56" value="num" style="shape=parallelogram;perimeter=parallelogramPerimeter;whiteSpace=wrap;html=1;fixedSize=1;" vertex="1" parent="1">
          <mxGeometry x="180" y="1440" width="120" height="60" as="geometry" />
        </mxCell>
        <mxCell id="BQ4Z-b_mNlI9nWMjUYyL-57" style="edgeStyle=orthogonalEdgeStyle;rounded=0;orthogonalLoop=1;jettySize=auto;html=1;exitX=0.5;exitY=1;exitDx=0;exitDy=0;entryX=0.575;entryY=0.017;entryDx=0;entryDy=0;entryPerimeter=0;" edge="1" parent="1" source="BQ4Z-b_mNlI9nWMjUYyL-55" target="BQ4Z-b_mNlI9nWMjUYyL-56">
          <mxGeometry relative="1" as="geometry" />
        </mxCell>
        <mxCell id="BQ4Z-b_mNlI9nWMjUYyL-63" style="edgeStyle=orthogonalEdgeStyle;rounded=0;orthogonalLoop=1;jettySize=auto;html=1;exitX=1;exitY=0;exitDx=0;exitDy=0;" edge="1" parent="1" source="BQ4Z-b_mNlI9nWMjUYyL-58" target="BQ4Z-b_mNlI9nWMjUYyL-60">
          <mxGeometry relative="1" as="geometry" />
        </mxCell>
        <mxCell id="BQ4Z-b_mNlI9nWMjUYyL-67" value="true" style="edgeLabel;html=1;align=center;verticalAlign=middle;resizable=0;points=[];" vertex="1" connectable="0" parent="BQ4Z-b_mNlI9nWMjUYyL-63">
          <mxGeometry x="-0.0286" y="2" relative="1" as="geometry">
            <mxPoint as="offset" />
          </mxGeometry>
        </mxCell>
        <mxCell id="BQ4Z-b_mNlI9nWMjUYyL-64" style="edgeStyle=orthogonalEdgeStyle;rounded=0;orthogonalLoop=1;jettySize=auto;html=1;exitX=1;exitY=1;exitDx=0;exitDy=0;entryX=0.5;entryY=0;entryDx=0;entryDy=0;" edge="1" parent="1" source="BQ4Z-b_mNlI9nWMjUYyL-58" target="BQ4Z-b_mNlI9nWMjUYyL-61">
          <mxGeometry relative="1" as="geometry" />
        </mxCell>
        <mxCell id="BQ4Z-b_mNlI9nWMjUYyL-68" value="false" style="edgeLabel;html=1;align=center;verticalAlign=middle;resizable=0;points=[];" vertex="1" connectable="0" parent="BQ4Z-b_mNlI9nWMjUYyL-64">
          <mxGeometry x="0.01" relative="1" as="geometry">
            <mxPoint as="offset" />
          </mxGeometry>
        </mxCell>
        <mxCell id="BQ4Z-b_mNlI9nWMjUYyL-58" value="num / 5 || num / 7" style="rhombus;whiteSpace=wrap;html=1;" vertex="1" parent="1">
          <mxGeometry x="90" y="1550" width="300" height="120" as="geometry" />
        </mxCell>
        <mxCell id="BQ4Z-b_mNlI9nWMjUYyL-65" style="edgeStyle=orthogonalEdgeStyle;rounded=0;orthogonalLoop=1;jettySize=auto;html=1;exitX=1;exitY=0.5;exitDx=0;exitDy=0;entryX=0.5;entryY=0;entryDx=0;entryDy=0;" edge="1" parent="1" source="BQ4Z-b_mNlI9nWMjUYyL-60" target="BQ4Z-b_mNlI9nWMjUYyL-62">
          <mxGeometry relative="1" as="geometry" />
        </mxCell>
        <mxCell id="BQ4Z-b_mNlI9nWMjUYyL-60" value="bolunur" style="shape=document;whiteSpace=wrap;html=1;boundedLbl=1;" vertex="1" parent="1">
          <mxGeometry x="425" y="1460" width="120" height="80" as="geometry" />
        </mxCell>
        <mxCell id="BQ4Z-b_mNlI9nWMjUYyL-66" style="edgeStyle=orthogonalEdgeStyle;rounded=0;orthogonalLoop=1;jettySize=auto;html=1;exitX=1;exitY=0.5;exitDx=0;exitDy=0;entryX=0.5;entryY=1;entryDx=0;entryDy=0;" edge="1" parent="1" source="BQ4Z-b_mNlI9nWMjUYyL-61" target="BQ4Z-b_mNlI9nWMjUYyL-62">
          <mxGeometry relative="1" as="geometry" />
        </mxCell>
        <mxCell id="BQ4Z-b_mNlI9nWMjUYyL-61" value="bolunmur" style="shape=document;whiteSpace=wrap;html=1;boundedLbl=1;" vertex="1" parent="1">
          <mxGeometry x="425" y="1670" width="120" height="80" as="geometry" />
        </mxCell>
        <mxCell id="BQ4Z-b_mNlI9nWMjUYyL-62" value="end" style="rounded=1;whiteSpace=wrap;html=1;" vertex="1" parent="1">
          <mxGeometry x="660" y="1570" width="120" height="60" as="geometry" />
        </mxCell>
        <mxCell id="BQ4Z-b_mNlI9nWMjUYyL-70" value="&lt;br&gt;&lt;span style=&quot;color: rgb(0, 0, 0); font-family: Helvetica; font-size: 12px; font-style: normal; font-variant-ligatures: normal; font-variant-caps: normal; font-weight: 400; letter-spacing: normal; orphans: 2; text-align: center; text-indent: 0px; text-transform: none; widows: 2; word-spacing: 0px; -webkit-text-stroke-width: 0px; white-space: normal; background-color: rgb(251, 251, 251); text-decoration-thickness: initial; text-decoration-style: initial; text-decoration-color: initial; display: inline !important; float: none;&quot;&gt;NUM*NUM*NUM&lt;/span&gt;&lt;div&gt;&lt;br/&gt;&lt;/div&gt;" style="rhombus;whiteSpace=wrap;html=1;" vertex="1" parent="1">
          <mxGeometry x="571" y="530" width="210" height="80" as="geometry" />
        </mxCell>
        <mxCell id="BQ4Z-b_mNlI9nWMjUYyL-77" value="" style="endArrow=classic;html=1;rounded=0;entryX=0.4;entryY=0.963;entryDx=0;entryDy=0;entryPerimeter=0;exitX=0.5;exitY=1;exitDx=0;exitDy=0;" edge="1" parent="1" source="BQ4Z-b_mNlI9nWMjUYyL-70" target="BQ4Z-b_mNlI9nWMjUYyL-31">
          <mxGeometry width="50" height="50" relative="1" as="geometry">
            <mxPoint x="390" y="660" as="sourcePoint" />
            <mxPoint x="440" y="610" as="targetPoint" />
            <Array as="points">
              <mxPoint x="676" y="780" />
              <mxPoint x="430" y="780" />
              <mxPoint x="178" y="780" />
            </Array>
          </mxGeometry>
        </mxCell>
        <mxCell id="BQ4Z-b_mNlI9nWMjUYyL-78" value="Actor" style="shape=umlActor;verticalLabelPosition=bottom;verticalAlign=top;html=1;outlineConnect=0;" vertex="1" parent="1">
          <mxGeometry x="60" y="60" width="30" height="60" as="geometry" />
        </mxCell>
        <mxCell id="BQ4Z-b_mNlI9nWMjUYyL-79" value="?" style="ellipse;shape=cloud;whiteSpace=wrap;html=1;" vertex="1" parent="1">
          <mxGeometry x="70" y="10" width="70" height="50" as="geometry" />
        </mxCell>
        <mxCell id="BQ4Z-b_mNlI9nWMjUYyL-80" value="" style="shape=image;html=1;verticalLabelPosition=bottom;verticalAlign=top;imageAspect=1;aspect=fixed;image=img/clipart/Gear_128x128.png" vertex="1" parent="1">
          <mxGeometry x="472.21" y="280" width="25.57" height="30" as="geometry" />
        </mxCell>
        <mxCell id="BQ4Z-b_mNlI9nWMjUYyL-81" value="Start" style="labelPosition=center;verticalLabelPosition=middle;align=center;html=1;shape=mxgraph.basic.shaded_button;dx=10;fillColor=#E6E6E6;strokeColor=none;whiteSpace=wrap;" vertex="1" parent="1">
          <mxGeometry x="440" width="100" height="60" as="geometry" />
        </mxCell>
      </root>
    </mxGraphModel>
  </diagram>
</mxfile>
